<svg width="13" height="13" viewBox="0 0 13 13" fill="none" xmlns="http://www.w3.org/2000/svg">
<path d="M0.792893 10.7929C0.402369 11.1834 0.402369 11.8166 0.792893 12.2071C1.18342 12.5976 1.81658 12.5976 2.20711 12.2071L0.792893 10.7929ZM12.5 1.5C12.5 0.947715 12.0523 0.5 11.5 0.5L2.5 0.5C1.94772 0.5 1.5 0.947715 1.5 1.5C1.5 2.05229 1.94772 2.5 2.5 2.5L10.5 2.5L10.5 10.5C10.5 11.0523 10.9477 11.5 11.5 11.5C12.0523 11.5 12.5 11.0523 12.5 10.5L12.5 1.5ZM2.20711 12.2071L12.2071 2.20711L10.7929 0.792893L0.792893 10.7929L2.20711 12.2071Z" fill="#A68B6E"/>
</svg>
